<svg xmlns="http://www.w3.org/2000/svg" xmlns:xlink="http://www.w3.org/1999/xlink" id="visual" width="960" height="540" version="1.1" viewBox="0 0 960 540"><path fill="#111d25" d="M0 177L22.8 178.2C45.7 179.3 91.3 181.7 137 177.8C182.7 174 228.3 164 274 164.7C319.7 165.3 365.3 176.7 411.2 177.8C457 179 503 170 548.8 166.5C594.7 163 640.3 165 686 164.2C731.7 163.3 777.3 159.7 823 169C868.7 178.3 914.3 200.7 937.2 211.8L960 223L960 0L937.2 0C914.3 0 868.7 0 823 0C777.3 0 731.7 0 686 0C640.3 0 594.7 0 548.8 0C503 0 457 0 411.2 0C365.3 0 319.7 0 274 0C228.3 0 182.7 0 137 0C91.3 0 45.7 0 22.8 0L0 0Z"/><path fill="#17232b" d="M0 163L22.8 163.5C45.7 164 91.3 165 137 155.8C182.7 146.7 228.3 127.3 274 127.5C319.7 127.7 365.3 147.3 411.2 156.7C457 166 503 165 548.8 162.3C594.7 159.7 640.3 155.3 686 157.7C731.7 160 777.3 169 823 169.8C868.7 170.7 914.3 163.3 937.2 159.7L960 156L960 0L937.2 0C914.3 0 868.7 0 823 0C777.3 0 731.7 0 686 0C640.3 0 594.7 0 548.8 0C503 0 457 0 411.2 0C365.3 0 319.7 0 274 0C228.3 0 182.7 0 137 0C91.3 0 45.7 0 22.8 0L0 0Z"/><path fill="#1c2830" d="M0 102L22.8 102.5C45.7 103 91.3 104 137 110.3C182.7 116.7 228.3 128.3 274 130.8C319.7 133.3 365.3 126.7 411.2 126.3C457 126 503 132 548.8 129.8C594.7 127.7 640.3 117.3 686 112C731.7 106.7 777.3 106.3 823 108.8C868.7 111.3 914.3 116.7 937.2 119.3L960 122L960 0L937.2 0C914.3 0 868.7 0 823 0C777.3 0 731.7 0 686 0C640.3 0 594.7 0 548.8 0C503 0 457 0 411.2 0C365.3 0 319.7 0 274 0C228.3 0 182.7 0 137 0C91.3 0 45.7 0 22.8 0L0 0Z"/><path fill="#17232b" d="M0 52L22.8 53.2C45.7 54.3 91.3 56.7 137 57.5C182.7 58.3 228.3 57.7 274 62.2C319.7 66.7 365.3 76.3 411.2 77.7C457 79 503 72 548.8 73.5C594.7 75 640.3 85 686 83.2C731.7 81.3 777.3 67.7 823 60.2C868.7 52.7 914.3 51.3 937.2 50.7L960 50L960 0L937.2 0C914.3 0 868.7 0 823 0C777.3 0 731.7 0 686 0C640.3 0 594.7 0 548.8 0C503 0 457 0 411.2 0C365.3 0 319.7 0 274 0C228.3 0 182.7 0 137 0C91.3 0 45.7 0 22.8 0L0 0Z"/><path fill="#111d25" d="M0 42L22.8 42.3C45.7 42.7 91.3 43.3 137 45C182.7 46.7 228.3 49.3 274 46.7C319.7 44 365.3 36 411.2 32.2C457 28.3 503 28.7 548.8 32.2C594.7 35.7 640.3 42.3 686 43.2C731.7 44 777.3 39 823 36.3C868.7 33.7 914.3 33.3 937.2 33.2L960 33L960 0L937.2 0C914.3 0 868.7 0 823 0C777.3 0 731.7 0 686 0C640.3 0 594.7 0 548.8 0C503 0 457 0 411.2 0C365.3 0 319.7 0 274 0C228.3 0 182.7 0 137 0C91.3 0 45.7 0 22.8 0L0 0Z"/></svg>