<svg id="visual" viewBox="0 0 960 540" width="960" height="540" xmlns="http://www.w3.org/2000/svg" xmlns:xlink="http://www.w3.org/1999/xlink" version="1.1"><path d="M0 164L22.8 167.8C45.7 171.7 91.3 179.3 137 177.2C182.7 175 228.3 163 274 156C319.7 149 365.3 147 411.2 146.2C457 145.3 503 145.7 548.8 150.3C594.7 155 640.3 164 686 169.7C731.7 175.3 777.3 177.7 823 184.3C868.7 191 914.3 202 937.2 207.5L960 213L960 0L937.2 0C914.3 0 868.7 0 823 0C777.3 0 731.7 0 686 0C640.3 0 594.7 0 548.8 0C503 0 457 0 411.2 0C365.3 0 319.7 0 274 0C228.3 0 182.7 0 137 0C91.3 0 45.7 0 22.8 0L0 0Z" fill="#111d25"></path><path d="M0 131L22.8 138C45.7 145 91.3 159 137 158C182.7 157 228.3 141 274 139.2C319.7 137.3 365.3 149.7 411.2 151.8C457 154 503 146 548.8 145.5C594.7 145 640.3 152 686 159C731.7 166 777.3 173 823 170.7C868.7 168.3 914.3 156.7 937.2 150.8L960 145L960 0L937.2 0C914.3 0 868.7 0 823 0C777.3 0 731.7 0 686 0C640.3 0 594.7 0 548.8 0C503 0 457 0 411.2 0C365.3 0 319.7 0 274 0C228.3 0 182.7 0 137 0C91.3 0 45.7 0 22.8 0L0 0Z" fill="#17232b"></path><path d="M0 139L22.8 131.8C45.7 124.7 91.3 110.3 137 106.2C182.7 102 228.3 108 274 107C319.7 106 365.3 98 411.2 99C457 100 503 110 548.8 110.2C594.7 110.3 640.3 100.7 686 102.2C731.7 103.7 777.3 116.3 823 117.3C868.7 118.3 914.3 107.7 937.2 102.3L960 97L960 0L937.2 0C914.3 0 868.7 0 823 0C777.3 0 731.7 0 686 0C640.3 0 594.7 0 548.8 0C503 0 457 0 411.2 0C365.3 0 319.7 0 274 0C228.3 0 182.7 0 137 0C91.3 0 45.7 0 22.8 0L0 0Z" fill="#1c2830"></path><path d="M0 89L22.8 84.7C45.7 80.3 91.3 71.7 137 69.5C182.7 67.3 228.3 71.7 274 78.5C319.7 85.3 365.3 94.7 411.2 97.5C457 100.3 503 96.7 548.8 95.3C594.7 94 640.3 95 686 96.8C731.7 98.7 777.3 101.3 823 97.7C868.7 94 914.3 84 937.2 79L960 74L960 0L937.2 0C914.3 0 868.7 0 823 0C777.3 0 731.7 0 686 0C640.3 0 594.7 0 548.8 0C503 0 457 0 411.2 0C365.3 0 319.7 0 274 0C228.3 0 182.7 0 137 0C91.3 0 45.7 0 22.8 0L0 0Z" fill="#17232b"></path><path d="M0 57L22.8 53.2C45.7 49.3 91.3 41.7 137 37.2C182.7 32.7 228.3 31.3 274 32.3C319.7 33.3 365.3 36.7 411.2 36C457 35.3 503 30.7 548.8 33.3C594.7 36 640.3 46 686 47.8C731.7 49.7 777.3 43.3 823 39C868.7 34.7 914.3 32.3 937.2 31.2L960 30L960 0L937.2 0C914.3 0 868.7 0 823 0C777.3 0 731.7 0 686 0C640.3 0 594.7 0 548.8 0C503 0 457 0 411.2 0C365.3 0 319.7 0 274 0C228.3 0 182.7 0 137 0C91.3 0 45.7 0 22.8 0L0 0Z" fill="#111d25"></path></svg>